PathFileType	4	(X/Y/Z)	output.trc
DataRate	CameraRate	NumFrames	NumMarkers	Units	OrigDataRate	OrigDataStartFrame	OrigNumFrames
100	100	10	23	m	100	1	5582
Frame#	Time	C7			T8			EL			EM			US			RS			AA			Fore_Clus_1			Fore_Clus_2			Fore_Clus_3			Fore_Clus_4			Hum_Clus_1			Hum_Clus_2			Hum_Clus_3			Hum_Clus_4			Thor_Clus_1			Thor_Clus_2			Thor_Clus_3			Thor_Clus_4			IJ			PX			GH			Thor_Clus_5		
		X1	Y1	Z1	X2	Y2	Z2	X3	Y3	Z3	X4	Y4	Z4	X5	Y5	Z5	X6	Y6	Z6	X7	Y7	Z7	X8	Y8	Z8	X9	Y9	Z9	X10	Y10	Z10	X11	Y11	Z11	X12	Y12	Z12	X13	Y13	Z13	X14	Y14	Z14	X15	Y15	Z15	X16	Y16	Z16	X17	Y17	Z17	X18	Y18	Z18	X19	Y19	Z19	X20	Y20	Z20	X21	Y21	Z21	X22	Y22	Z22	X23	Y23	Z23
0	0.000000	-0.045665	1.365333	-0.082739	-0.056312	1.162830	-0.141627	-0.236290	1.001866	0.099753	-0.226311	0.987359	0.043277	-0.183281	0.785477	0.174193	-0.142620	0.782231	0.142613	-0.188187	1.279850	0.030570	-0.166024	0.841815	0.189957	-0.153796	0.790418	0.203068	-0.132306	0.790959	0.184840	-0.132279	0.842481	0.160604	-0.217097	1.117819	0.125946	-0.256087	1.129494	0.081420	-0.249426	1.192738	0.077690	-0.204152	1.190153	0.115363	0.061251	1.261217	0.047687	0.016402	1.205284	0.092398	0.021229	1.256819	0.066444	0.074415	1.211417	0.064747	0.006968	1.281327	0.010552	0.023679	1.083386	0.034780	-0.147856	1.253237	0.018487	0.010612	1.227553	0.084729
1	0.010000	-0.045654	1.365425	-0.082676	-0.056314	1.162983	-0.141771	-0.237358	1.002886	0.101724	-0.228504	0.988222	0.045102	-0.183055	0.784851	0.171465	-0.141450	0.783608	0.140994	-0.188194	1.279840	0.030533	-0.167662	0.841539	0.190632	-0.155081	0.789315	0.202138	-0.132554	0.791610	0.187079	-0.132828	0.843927	0.162536	-0.216612	1.118471	0.127068	-0.256115	1.130518	0.083166	-0.249003	1.193682	0.079388	-0.203269	1.190662	0.116357	0.061232	1.261176	0.047658	0.016358	1.205220	0.092287	0.021198	1.256777	0.066409	0.074399	1.211368	0.064655	0.006962	1.281319	0.010535	0.023654	1.083353	0.034563	-0.147704	1.253238	0.018672	0.010579	1.227501	0.084643
2	0.020000	-0.045649	1.365517	-0.082598	-0.056378	1.163127	-0.141859	-0.238309	1.003796	0.103305	-0.230327	0.989016	0.046583	-0.182400	0.784587	0.168930	-0.139804	0.785445	0.139846	-0.188191	1.279879	0.030569	-0.169383	0.841310	0.191167	-0.155839	0.788985	0.201661	-0.132583	0.792517	0.187334	-0.133444	0.845544	0.164818	-0.216399	1.119136	0.127944	-0.256238	1.131396	0.084357	-0.248761	1.194520	0.080514	-0.202690	1.191260	0.117126	0.061215	1.261147	0.047622	0.016328	1.205199	0.092212	0.021179	1.256754	0.066351	0.074355	1.211304	0.064593	0.006962	1.281319	0.010532	0.023603	1.083328	0.034393	-0.147595	1.253306	0.018880	0.010549	1.227471	0.084578
3	0.030000	-0.045645	1.365608	-0.082510	-0.056502	1.163260	-0.141890	-0.239137	1.004559	0.104415	-0.231742	0.989702	0.047634	-0.181282	0.784721	0.166807	-0.137786	0.787596	0.139223	-0.188176	1.279970	0.030671	-0.171074	0.841359	0.191690	-0.156555	0.789200	0.201422	-0.132599	0.793271	0.187873	-0.133845	0.847105	0.166956	-0.216516	1.119735	0.128577	-0.256482	1.132119	0.085141	-0.248741	1.195215	0.081129	-0.202530	1.191820	0.117669	0.061214	1.261118	0.047583	0.016309	1.205173	0.092172	0.021184	1.256744	0.066335	0.074328	1.211256	0.064529	0.006968	1.281327	0.010544	0.023522	1.083313	0.034276	-0.147514	1.253429	0.019087	0.010537	1.227460	0.084551
4	0.040000	-0.045640	1.365695	-0.082413	-0.056675	1.163377	-0.141864	-0.239828	1.005143	0.105003	-0.232724	0.990247	0.048196	-0.179770	0.785230	0.165243	-0.135558	0.789856	0.139072	-0.188153	1.280111	0.030831	-0.171686	0.841720	0.191734	-0.156410	0.789556	0.200965	-0.131925	0.794641	0.188243	-0.133772	0.848525	0.168411	-0.216907	1.120272	0.128916	-0.256747	1.132673	0.085405	-0.248834	1.195753	0.081305	-0.202655	1.192296	0.117890	0.061229	1.261102	0.047556	0.016324	1.205194	0.092174	0.021218	1.256756	0.066345	0.074321	1.211224	0.064483	0.006978	1.281343	0.010572	0.023414	1.083308	0.034217	-0.147451	1.253597	0.019275	0.010554	1.227470	0.084573
5	0.050000	-0.045635	1.365772	-0.082314	-0.056885	1.163472	-0.141784	-0.240367	1.005524	0.105054	-0.233258	0.990623	0.048248	-0.177981	0.786046	0.164288	-0.133279	0.792015	0.139244	-0.188123	1.280287	0.031037	-0.171030	0.842481	0.191360	-0.155437	0.790822	0.200718	-0.130629	0.796002	0.188386	-0.132789	0.849916	0.168790	-0.217368	1.120661	0.128917	-0.257068	1.133042	0.085263	-0.249027	1.196102	0.081108	-0.202998	1.192634	0.117850	0.061251	1.261086	0.047555	0.016341	1.205204	0.092199	0.021268	1.256785	0.066394	0.074314	1.211200	0.064453	0.006992	1.281363	0.010616	0.023286	1.083312	0.034217	-0.147404	1.253795	0.019429	0.010595	1.227522	0.084612
6	0.060000	-0.045627	1.365839	-0.082214	-0.057122	1.163544	-0.141657	-0.240725	1.005686	0.104576	-0.233331	0.990815	0.047798	-0.176045	0.787076	0.163909	-0.131080	0.793890	0.139562	-0.188088	1.280497	0.031278	-0.169114	0.843586	0.190787	-0.153216	0.792152	0.200348	-0.125922	0.801100	0.189383	-0.131042	0.851264	0.168149	-0.217920	1.120898	0.128627	-0.257350	1.133241	0.084674	-0.249286	1.196266	0.080548	-0.203518	1.192869	0.117505	0.061285	1.261080	0.047586	0.016372	1.205259	0.092285	0.021325	1.256827	0.066462	0.074330	1.211187	0.064469	0.007009	1.281388	0.010673	0.023139	1.083323	0.034275	-0.147371	1.254014	0.019545	0.010646	1.227555	0.084687
7	0.070000	-0.045618	1.365890	-0.082118	-0.057371	1.163590	-0.141491	-0.240871	1.005619	0.103614	-0.232944	0.990817	0.046891	-0.174046	0.788224	0.164021	-0.129021	0.795371	0.139881	-0.188052	1.280722	0.031539	-0.166439	0.844905	0.189861	-0.149972	0.793246	0.199747	-0.126242	0.798359	0.186561	-0.128754	0.852598	0.166713	-0.218546	1.120912	0.128080	-0.257610	1.133194	0.083751	-0.249699	1.196217	0.079714	-0.204263	1.192923	0.117062	0.061332	1.261067	0.047606	0.016402	1.205278	0.092397	0.021394	1.256860	0.066557	0.074344	1.211175	0.064503	0.007026	1.281414	0.010742	0.022983	1.083341	0.034387	-0.147361	1.254242	0.019623	0.010677	1.227596	0.084789
8	0.080000	-0.045609	1.365925	-0.082027	-0.057620	1.163608	-0.141293	-0.240775	1.005327	0.102233	-0.232101	0.990631	0.045591	-0.172038	0.789401	0.164519	-0.127128	0.796407	0.140124	-0.188017	1.280952	0.031807	-0.163537	0.846220	0.189064	-0.146776	0.794762	0.199416	-0.123263	0.799762	0.185604	-0.126428	0.853678	0.165094	-0.219263	1.120766	0.127358	-0.257825	1.132925	0.082524	-0.250101	1.196012	0.078614	-0.205078	1.192886	0.116472	0.061370	1.261056	0.047638	0.016455	1.205335	0.092506	0.021465	1.256887	0.066639	0.074353	1.211159	0.064548	0.007040	1.281441	0.010822	0.022824	1.083363	0.034545	-0.147383	1.254472	0.019670	0.010730	1.227640	0.084880
9	0.090000	-0.045601	1.365942	-0.081946	-0.057859	1.163601	-0.141075	-0.240407	1.004819	0.100513	-0.230822	0.990273	0.043980	-0.170049	0.790532	0.165293	-0.125397	0.797007	0.140285	-0.187987	1.281176	0.032071	-0.160870	0.847560	0.188378	-0.144012	0.796138	0.198825	-0.116968	0.805970	0.186863	-0.124070	0.854626	0.163436	-0.219914	1.120408	0.126265	-0.257974	1.132368	0.081031	-0.250624	1.195496	0.077300	-0.206043	1.192581	0.115731	0.061398	1.261058	0.047700	0.016488	1.205380	0.092626	0.021516	1.256924	0.066736	0.074370	1.211155	0.064610	0.007052	1.281466	0.010908	0.022669	1.083388	0.034740	-0.147451	1.254698	0.019692	0.010780	1.227700	0.084986
